<svg width="250" height="250" viewBox="0 0 250 250" fill="none" xmlns="http://www.w3.org/2000/svg">
<path d="M62.5196 171.259C57.4916 170.201 52.9598 167.191 49.4865 162.659C40.3236 150.75 45.7816 134.674 60.5349 130.043C61.6265 129.679 64.0744 129.381 66.7538 129.249L71.1533 129.05L69.1355 126.735C62.3543 118.928 61.2957 108.277 66.4891 100.239C69.764 95.2106 75.3212 91.8696 81.2093 91.3072C83.988 91.0426 84.7488 90.8772 84.5172 90.5133C84.418 90.3149 84.4841 90.1826 84.6495 90.1826C85.1788 90.1826 85.0796 91.9027 84.4841 93.3251C83.4587 95.806 82.9625 99.4116 83.3595 101.859C85.245 114.132 98.7412 131.3 121.202 150.023C123.981 152.338 124.51 152.669 125.006 152.305C137.642 142.613 152.561 127.33 159.243 117.175C163.245 111.122 166.057 103.977 166.057 99.9409C166.057 98.9816 165.693 96.8976 165.23 95.3429C164.337 92.2004 164.139 90.1164 164.8 90.778C165.032 91.0095 166.024 91.1749 167.049 91.1749C171.449 91.1749 177.139 93.4905 180.347 96.5668C188.849 104.737 188.981 117.737 180.711 126.9C179.752 127.959 178.958 128.918 178.958 128.984C178.958 129.084 180.645 129.183 182.696 129.183C185.673 129.183 186.963 129.348 189.312 130.043C192.752 131.035 193.645 131.465 196.424 133.417C202.014 137.386 205.421 144.498 204.958 151.213C204.363 159.979 197.35 168.547 188.782 170.929C185.21 171.921 177.337 172.02 171.912 171.094C159.673 169.076 144.523 163.916 129.273 156.605L125.072 154.587L120.474 156.771C112.833 160.442 103.505 164.18 95.7641 166.694C81.507 171.325 70.2271 172.88 62.5196 171.259Z" fill="#32CFD6"/>
<path d="M120.573 151.313C108.4 141.157 97.8811 130.506 91.3314 121.641C87.3289 116.249 83.9217 109.6 82.7309 104.903C82.1024 102.389 81.937 99.2462 82.367 96.7653C82.8301 93.9866 83.9217 90.8441 84.3848 90.8441C84.5833 90.8441 84.6495 90.7118 84.5502 90.5795C84.4841 90.4472 84.5172 90.1495 84.6495 89.9179C84.9472 89.4548 89.0821 89.8848 91.9599 90.7118C96.8556 92.1011 102.38 96.8976 106.812 103.58C112.734 112.511 119.118 127.959 123.319 143.374L124.609 148.137L125.965 143.208C131.456 123.526 138.899 107.152 146.342 98.4523C150.874 93.1266 155.935 90.381 162.451 89.7195L164.304 89.521L164.998 90.9434C167.049 95.0783 167.579 100.569 166.388 105.267C165.561 108.475 162.782 114.264 160.235 118.167C154.777 126.47 144.423 137.651 133.309 147.244C128.612 151.28 124.807 154.356 124.477 154.356C124.344 154.356 122.591 153 120.573 151.313Z" fill="#0A7F8A"/>
<path d="M124.047 151.015C118.886 130.737 112.668 114.893 105.82 104.572C102.81 100.007 97.9804 95.0783 94.9041 93.3582C92.6216 92.1012 88.3875 90.8442 86.3697 90.8442C84.3849 90.8442 84.2857 90.5464 85.5758 88.3963C87.2297 85.5846 88.7845 83.7652 91.0008 82.1113C93.6802 80.0935 95.9295 79.1011 99.2374 78.4064C109.327 76.3886 119.581 82.3428 123.617 92.5973L124.477 94.8136L126.23 91.2742C128.876 85.8492 132.052 82.5413 136.782 80.2258C143.663 76.8848 151.172 77.3148 157.225 81.4497C159.805 83.2029 161.691 85.2538 163.51 88.264C164.866 90.5134 164.767 90.8442 162.749 90.8442C159.541 90.8442 154.281 93.0605 151.072 95.7068C142.174 103.116 133.077 121.707 126.428 146.152C125.535 149.394 124.741 152.107 124.642 152.239C124.51 152.338 124.245 151.776 124.047 151.015Z" fill="#296870"/>
</svg>
