<svg width="150" height="89" viewBox="0 0 150 89" fill="none" xmlns="http://www.w3.org/2000/svg">
<path d="M16.4247 87.4307C11.7109 86.4383 7.46232 83.6162 4.2061 79.3676C-4.38412 68.2035 0.732796 53.1318 14.564 48.7902C15.5874 48.4491 17.8822 48.17 20.3942 48.0459L24.5187 47.8598L22.627 45.689C16.2696 38.3703 15.2772 28.3846 20.1461 20.8487C23.2162 16.135 28.4262 13.0028 33.9462 12.4756C36.5512 12.2275 37.2645 12.0724 37.0474 11.7313C36.9544 11.5453 37.0164 11.4212 37.1714 11.4212C37.6676 11.4212 37.5746 13.0338 37.0164 14.3673C36.055 16.6932 35.5899 20.0734 35.962 22.3683C37.7297 33.8736 50.3824 49.9686 71.4393 67.5212C74.0443 69.692 74.5404 70.0021 75.0056 69.661C86.852 60.5746 100.838 46.2472 107.103 36.7267C110.855 31.0516 113.491 24.353 113.491 20.5696C113.491 19.6703 113.15 17.7166 112.716 16.259C111.878 13.3129 111.692 11.3592 112.313 11.9794C112.53 12.1965 113.46 12.3516 114.421 12.3516C118.546 12.3516 123.88 14.5224 126.888 17.4064C134.858 25.0663 134.982 37.2539 127.229 45.8441C126.33 46.8365 125.586 47.7358 125.586 47.7978C125.586 47.8909 127.167 47.9839 129.09 47.9839C131.881 47.9839 133.09 48.139 135.292 48.7902C138.517 49.7205 139.355 50.1237 141.96 51.9534C147.201 55.6748 150.395 62.3423 149.961 68.6376C149.402 76.8557 142.828 84.8877 134.796 87.1206C131.447 88.0509 124.066 88.1439 118.98 87.2756C107.506 85.3839 93.3025 80.5461 79.0061 73.6925L75.0676 71.8008L70.757 73.8476C63.5933 77.2899 54.8481 80.7942 47.5913 83.1511C34.2253 87.4927 23.6504 88.9502 16.4247 87.4307Z" fill="#32CFD6"/>
<path d="M70.8497 68.7306C59.4374 59.2101 49.5757 49.2243 43.4354 40.9132C39.683 35.8583 36.4888 29.625 35.3724 25.2213C34.7831 22.8645 34.6281 19.9183 35.0312 17.5925C35.4654 14.9875 36.4888 12.0414 36.9229 12.0414C37.109 12.0414 37.171 11.9174 37.078 11.7933C37.016 11.6693 37.047 11.3902 37.171 11.1731C37.4501 10.7389 41.3266 11.1421 44.0246 11.9174C48.6143 13.2198 53.7933 17.7165 57.9488 23.9809C63.4999 32.354 69.4851 46.8364 73.4236 61.2878L74.6331 65.7535L75.9045 61.1328C81.0525 42.6809 88.0301 27.3301 95.0077 19.1741C99.2563 14.1812 104.001 11.6072 110.11 10.987L111.847 10.8009L112.498 12.1344C114.421 16.0109 114.917 21.1588 113.801 25.5625C113.025 28.5706 110.42 33.9976 108.033 37.657C102.916 45.4409 93.209 55.9228 82.7891 64.9162C78.3855 68.6996 74.8191 71.5837 74.509 71.5837C74.385 71.5837 72.7414 70.3122 70.8497 68.7306Z" fill="#0A7F8A"/>
<path d="M74.1065 68.4515C69.2687 49.4414 63.4385 34.5868 57.0191 24.9112C54.197 20.6316 49.6693 16.0109 46.7853 14.3983C44.6455 13.2198 40.676 12.0414 38.7843 12.0414C36.9236 12.0414 36.8305 11.7623 38.04 9.74654C39.5906 7.11055 41.0481 5.40491 43.1259 3.85433C45.6378 1.96262 47.7466 1.03227 50.8478 0.381031C60.3063 -1.51068 69.9199 4.07141 73.7033 13.685L74.5096 15.7628L76.1533 12.4445C78.6342 7.35864 81.6113 4.25748 86.046 2.08667C92.4964 -1.0455 99.536 -0.642352 105.211 3.2341C107.63 4.87772 109.398 6.80044 111.103 9.62249C112.375 11.7313 112.282 12.0414 110.39 12.0414C107.382 12.0414 102.451 14.1192 99.443 16.6001C91.1009 23.5467 82.5727 40.9752 76.3393 63.8928C75.502 66.932 74.7577 69.4749 74.6647 69.599C74.5407 69.692 74.2926 69.1648 74.1065 68.4515Z" fill="#296870"/>
</svg>
